<?xml version="1.0" encoding="UTF-8"?>
<svg width="40px" height="40px" viewBox="0 0 40 40" version="1.1" xmlns="http://www.w3.org/2000/svg" xmlns:xlink="http://www.w3.org/1999/xlink">
    <title>close-btn</title>
    <g id="Website" stroke="none" stroke-width="1" fill="none" fill-rule="evenodd">
        <g id="Product_Details_View" transform="translate(-2420.000000, -100.000000)" fill="#2B2B2B">
            <path d="M2440,100 C2451.04569,100 2460,108.954305 2460,120 C2460,131.045695 2451.04569,140 2440,140 C2428.95431,140 2420,131.045695 2420,120 C2420,108.954305 2428.95431,100 2440,100 Z M2433.92893,111.514719 C2433.53841,111.124194 2432.90524,111.124194 2432.51472,111.514719 C2432.12419,111.905243 2432.12419,112.538408 2432.51472,112.928932 L2432.51472,112.928932 L2439.58579,120 L2432.51472,127.071068 C2432.12419,127.461592 2432.12419,128.094757 2432.51472,128.485281 C2432.90524,128.875806 2433.53841,128.875806 2433.92893,128.485281 L2433.92893,128.485281 L2441,121.414214 L2448.07107,128.485281 C2448.46159,128.875806 2449.09476,128.875806 2449.48528,128.485281 C2449.87581,128.094757 2449.87581,127.461592 2449.48528,127.071068 L2449.48528,127.071068 L2442.41421,120 L2449.48528,112.928932 C2449.87581,112.538408 2449.87581,111.905243 2449.48528,111.514719 C2449.09476,111.124194 2448.46159,111.124194 2448.07107,111.514719 L2448.07107,111.514719 L2441,118.585786 Z" id="close-btn"></path>
        </g>
    </g>
</svg>