<?xml version="1.0" encoding="UTF-8"?>
<svg width="20px" height="20px" viewBox="0 0 20 20" version="1.1" xmlns="http://www.w3.org/2000/svg" xmlns:xlink="http://www.w3.org/1999/xlink">
    <title>instagram</title>
    <g id="Website" stroke="none" stroke-width="1" fill="none" fill-rule="evenodd">
        <g id="State" transform="translate(-888.000000, -1019.000000)">
            <g id="facebook" transform="translate(883.000000, 1014.000000)">
                <circle id="椭圆形备份-2" stroke="#DDDDDD" stroke-width="0.5" cx="15" cy="15" r="14.75"></circle>
                <path d="M18.3333333,9.33333333 C18.3333333,9.24492783 18.2982144,9.1601432 18.2357023,9.09763107 C18.1731901,9.03511895 18.0884055,9 18,9 L16.3333333,9 C14.586211,8.91296962 13.09685,10.2533945 13,12 L13,13.8 L11.3333333,13.8 C11.1492384,13.8 11,13.9492384 11,14.1333333 L11,15.8666667 C11,16.0507616 11.1492384,16.2 11.3333333,16.2 L13,16.2 L13,20.6666667 C13,20.8507616 13.1492384,21 13.3333333,21 L15.3333333,21 C15.4217388,21 15.5065235,20.9648811 15.5690356,20.9023689 C15.6315477,20.8398568 15.6666667,20.7550722 15.6666667,20.6666667 L15.6666667,16.2 L17.4133333,16.2 C17.5658296,16.2021906 17.7003626,16.1006045 17.74,15.9533333 L18.22,14.22 C18.2468789,14.1201814 18.225925,14.0135408 18.1632758,13.9313137 C18.1006265,13.8490865 18.0033726,13.8005793 17.9,13.8 L15.6666667,13.8 L15.6666667,12 C15.701028,11.6580658 15.9896813,11.3982778 16.3333333,11.4 L18,11.4 C18.1840949,11.4 18.3333333,11.2507616 18.3333333,11.0666667 L18.3333333,9.33333333 Z" id="路径" fill="#000000" fill-rule="nonzero"></path>
            </g>
        </g>
    </g>
</svg>