<?xml version="1.0" encoding="UTF-8"?>
<svg width="20px" height="20px" viewBox="0 0 20 20" version="1.1" xmlns="http://www.w3.org/2000/svg" xmlns:xlink="http://www.w3.org/1999/xlink">
    <title>instagram</title>
    <g id="Website" stroke="none" stroke-width="1" fill="none" fill-rule="evenodd">
        <g id="State" transform="translate(-843.000000, -1019.000000)">
            <g id="instagram" transform="translate(838.000000, 1014.000000)">
                <circle id="椭圆形" stroke="#666666" stroke-width="0.5" cx="15" cy="15" r="14.75"></circle>
                <path d="M14.9981185,11.4082599 C13.0105626,11.4082599 11.4065087,13.0123138 11.4065087,14.9998697 C11.4065087,16.9874256 13.0105626,18.5914795 14.9981185,18.5914795 C16.9856744,18.5914795 18.5897283,16.9874256 18.5897283,14.9998697 C18.5897283,13.0123138 16.9856744,11.4082599 14.9981185,11.4082599 Z M14.9981185,17.3341534 C13.712774,17.3341534 12.6638348,16.2852142 12.6638348,14.9998697 C12.6638348,13.7145252 13.712774,12.665586 14.9981185,12.665586 C16.283463,12.665586 17.3324022,13.7145252 17.3324022,14.9998697 C17.3324022,16.2852142 16.283463,17.3341534 14.9981185,17.3341534 Z M18.736825,10.4241132 C18.2727701,10.4241132 17.8980239,10.7988595 17.8980239,11.2629144 C17.8980239,11.7269693 18.2727701,12.1017155 18.736825,12.1017155 C19.2008799,12.1017155 19.5756261,11.7287204 19.5756261,11.2629144 C19.573875,10.7971083 19.2008799,10.4241132 18.736825,10.4241132 Z M21.9992185,14.9998697 C21.9992185,14.0332346 22.0079742,13.0753552 21.9536886,12.1104712 C21.8994029,10.9897349 21.6437349,9.99508136 20.8241965,9.1755429 C20.0029068,8.35425328 19.0100045,8.10033645 17.8892681,8.04605078 C16.922633,7.99176511 15.9647536,8.00052087 14.9998697,8.00052087 C14.0332346,8.00052087 13.0753552,7.99176511 12.1104712,8.04605078 C10.9897349,8.10033645 9.99508136,8.35600443 9.1755429,9.1755429 C8.35425328,9.99683251 8.10033645,10.9897349 8.04605078,12.1104712 C7.99176511,13.0771064 8.00052087,14.0349857 8.00052087,14.9998697 C8.00052087,15.9647536 7.99176511,16.9243842 8.04605078,17.8892681 C8.10033645,19.0100045 8.35600443,20.004658 9.1755429,20.8241965 C9.99683251,21.6454861 10.9897349,21.8994029 12.1104712,21.9536886 C13.0771064,22.0079742 14.0349857,21.9992185 14.9998697,21.9992185 C15.9665048,21.9992185 16.9243842,22.0079742 17.8892681,21.9536886 C19.0100045,21.8994029 20.004658,21.6437349 20.8241965,20.8241965 C21.6454861,20.0029068 21.8994029,19.0100045 21.9536886,17.8892681 C22.0097254,16.9243842 21.9992185,15.9665048 21.9992185,14.9998697 Z M20.458206,19.1290827 C20.330372,19.4477921 20.1762708,19.6859486 19.9293585,19.9311097 C19.6824463,20.1780219 19.446041,20.3321232 19.1273316,20.4599571 C18.2062264,20.8259476 16.0190393,20.7436435 14.9981185,20.7436435 C13.9771977,20.7436435 11.7882595,20.8259476 10.8671543,20.4617083 C10.5484449,20.3338743 10.3102885,20.1797731 10.0651274,19.9328608 C9.81821515,19.6859486 9.6641139,19.4495433 9.53627991,19.1308339 C9.17204059,18.2079775 9.25434467,16.0207905 9.25434467,14.9998697 C9.25434467,13.9789489 9.17204059,11.7900107 9.53627991,10.8689055 C9.6641139,10.5501961 9.81821515,10.3120396 10.0651274,10.0668785 C10.3120396,9.82171745 10.5484449,9.66586505 10.8671543,9.53803106 C11.7882595,9.17379175 13.9771977,9.25609582 14.9981185,9.25609582 C16.0190393,9.25609582 18.2079775,9.17379175 19.1290827,9.53803106 C19.4477921,9.66586505 19.6859486,9.8199663 19.9311097,10.0668785 C20.1780219,10.3137908 20.3321232,10.5501961 20.4599571,10.8689055 C20.8241965,11.7900107 20.7418924,13.9789489 20.7418924,14.9998697 C20.7418924,16.0207905 20.8241965,18.2079775 20.458206,19.1290827 Z" id="形状" fill="#000000" fill-rule="nonzero"></path>
            </g>
        </g>
    </g>
</svg>