<?xml version="1.0" encoding="UTF-8"?>
<svg width="24px" height="24px" viewBox="0 0 24 24" version="1.1" xmlns="http://www.w3.org/2000/svg" xmlns:xlink="http://www.w3.org/1999/xlink">
    <title>menu-close</title>
    <g id="Mobile" stroke="none" stroke-width="1" fill="none" fill-rule="evenodd">
        <g id="Product" transform="translate(-347.000000, -111.000000)" fill="#000000">
            <g id="Top_Menu" transform="translate(0.000000, 94.000000)">
                <g id="menu-btn" transform="translate(343.443651, 14.443651)">
                    <path d="M15.5563492,4.55634919 C16.1086339,4.55634919 16.5563492,5.00406444 16.5563492,5.55634919 L16.5563492,14.5563492 L25.5563492,14.5563492 C26.1086339,14.5563492 26.5563492,15.0040644 26.5563492,15.5563492 C26.5563492,16.1086339 26.1086339,16.5563492 25.5563492,16.5563492 L16.5563492,16.5563492 L16.5563492,25.5563492 C16.5563492,26.1086339 16.1086339,26.5563492 15.5563492,26.5563492 C15.0040644,26.5563492 14.5563492,26.1086339 14.5563492,25.5563492 L14.5563492,16.5563492 L5.55634919,16.5563492 C5.00406444,16.5563492 4.55634919,16.1086339 4.55634919,15.5563492 C4.55634919,15.0040644 5.00406444,14.5563492 5.55634919,14.5563492 L14.5563492,14.5563492 L14.5563492,5.55634919 C14.5563492,5.00406444 15.0040644,4.55634919 15.5563492,4.55634919 Z" id="形状结合" transform="translate(15.556349, 15.556349) rotate(45.000000) translate(-15.556349, -15.556349) "></path>
                </g>
            </g>
        </g>
    </g>
</svg>