<?xml version="1.0" encoding="UTF-8"?>
<svg width="90px" height="91px" viewBox="0 0 90 91" version="1.1" xmlns="http://www.w3.org/2000/svg" xmlns:xlink="http://www.w3.org/1999/xlink">
    <title>naiax-logo</title>
    <g id="Website" stroke="none" stroke-width="1" fill="none" fill-rule="evenodd">
        <g id="Produts_Layout" transform="translate(-142.000000, -94.000000)" fill="#000000">
            <g id="编组" transform="translate(133.000000, 94.928114)">
                <g id="naiax-logo" transform="translate(9.000000, 0.000000)">
                    <path d="M56.9996762,3.81227776 C57.5262828,3.81227776 58.043612,3.95156046 58.4996668,4.21612655 L82.4995417,18.1389114 C83.4277308,18.6773716 83.9995231,19.6724835 83.9995334,20.7494042 L84,69.3807616 C84,70.4577049 83.4282134,71.4528451 82.5000039,71.991315 L55.4766093,87.6680401 C54.5484521,88.2064796 53.4049225,88.2065032 52.4767433,87.6681018 L40.499885,80.7207827 C39.5716245,80.1823341 38.9997825,79.1871736 38.9997825,78.1101965 L38.9997825,64.7351824 C38.9997825,63.9027869 39.6713514,63.227997 40.4997825,63.227997 C40.7630833,63.227997 41.0217539,63.2976417 41.2497852,63.4299308 L51.7496912,69.5213023 C52.4671208,69.9375089 53.384504,69.69053 53.798724,68.9696595 C53.9303816,68.7405345 53.9996939,68.4806233 53.9996939,68.2160508 L53.9996939,6.82664841 C53.9996939,5.16185747 55.3428317,3.81227776 56.9996762,3.81227776 Z M36.5232567,2.47567078 L48.500115,9.42298993 C49.4283755,9.96143848 50.0002175,10.956599 50.0002175,12.0335761 L50.0002175,25.4085902 C50.0002175,26.2409857 49.3286486,26.9157756 48.5002264,26.9157756 C48.2369167,26.9157756 47.9782461,26.8461309 47.7502148,26.7138417 L37.2503088,20.6224703 C36.5328792,20.2062637 35.615496,20.4532426 35.201276,21.1741131 C35.0696184,21.403238 35.0003061,21.6631493 35.0003061,21.9277218 L35.0003061,83.3171242 C35.0003061,84.9819151 33.6571683,86.3314948 32.0003238,86.3314948 C31.4737172,86.3314948 30.956388,86.1922121 30.5003332,85.927646 L6.50045827,72.0048612 C5.57226917,71.466401 5.00047693,70.4712891 5.0004666,69.3943684 L5,20.763011 C5,19.6860677 5.57178659,18.6909275 6.5,18.1524576 L33.5233907,2.47573253 C34.4515479,1.93729294 35.5950775,1.9372694 36.5232567,2.47567078 Z" id="形状"></path>
                </g>
            </g>
        </g>
    </g>
</svg>