<?xml version="1.0" encoding="UTF-8"?>
<svg width="16px" height="16px" viewBox="0 0 16 16" version="1.1" xmlns="http://www.w3.org/2000/svg" xmlns:xlink="http://www.w3.org/1999/xlink">
    <title>手机</title>
    <g id="Website" stroke="none" stroke-width="1" fill="none" fill-rule="evenodd">
        <g id="Produts" transform="translate(-133.000000, -626.000000)" fill="#000000" fill-rule="nonzero">
            <g id="编组" transform="translate(133.000000, 97.928114)">
                <g id="编组-3" transform="translate(0.000000, 452.071886)">
                    <g id="手机" transform="translate(0.000000, 76.000000)">
                        <path d="M12.4800505,2.73098039 C12.4800505,1.78447013 11.7127627,1.01718234 10.7662525,1.01718234 L5.22393017,1.01718234 C4.27741991,1.01718234 3.51013213,1.78447012 3.51013213,2.73098039 L3.51013213,13.2619204 C3.51013213,14.2084307 4.27741991,14.9757185 5.22393017,14.9757185 L10.7662525,14.9757185 C11.7127627,14.9757185 12.4800505,14.2084307 12.4800505,13.2619204 L12.4800505,2.73098039 Z M4.13370934,3.70336112 L11.8564733,3.70336112 L11.8564733,11.9697565 L4.13370934,11.9697565 L4.13370934,3.70336112 Z M5.22431392,1.64075956 L10.7658847,1.64075956 C11.3682124,1.64075956 11.8564893,2.12903652 11.8564893,2.73136412 L11.8564893,3.07978389 L4.13372533,3.07978389 L4.13372533,2.73136412 C4.13372533,2.1290525 4.6219863,1.64075956 5.22431392,1.64075956 Z M10.7658847,14.3521413 L5.22431392,14.3521413 C4.6219863,14.3521413 4.13370936,13.8638643 4.13370936,13.2615367 L4.13370936,12.5773446 L11.8564733,12.5773446 L11.8564733,13.2615367 C11.8564733,13.8638643 11.3681964,14.3521413 10.7658847,14.3521413 Z M8.01833956,12.9678638 C7.75728456,12.9678638 7.54488456,13.1802638 7.54488456,13.4413188 C7.54488456,13.7023738 7.75728456,13.9147738 8.01833956,13.9147738 C8.27939456,13.9147738 8.49176258,13.7023738 8.49176258,13.4413188 C8.49176258,13.1802638 8.27939458,12.9678638 8.01833956,12.9678638 Z" id="形状"></path>
                    </g>
                </g>
            </g>
        </g>
    </g>
</svg>