<?xml version="1.0" encoding="UTF-8"?>
<svg width="20px" height="20px" viewBox="0 0 20 20" version="1.1" xmlns="http://www.w3.org/2000/svg" xmlns:xlink="http://www.w3.org/1999/xlink">
    <title>instagram</title>
    <g id="Website" stroke="none" stroke-width="1" fill="none" fill-rule="evenodd">
        <g id="State" transform="translate(-933.000000, -1019.000000)">
            <g id="twitter" transform="translate(928.000000, 1014.000000)">
                <circle id="椭圆形备份" stroke="#DDDDDD" stroke-width="0.5" cx="15" cy="15" r="14.75"></circle>
                <path d="M22,10.3510395 C21.485158,10.5731282 20.9248888,10.7329648 20.3477947,10.7952169 C20.9433962,10.4402115 21.3959861,9.87994231 21.6096623,9.21367624 C21.059488,9.54176181 20.4369667,9.78235789 19.789208,9.90686216 C19.2642711,9.34659296 18.518928,9 17.6928254,9 C16.1028723,9 14.8241798,10.2887874 14.8241798,11.8703281 C14.8241798,12.0924168 14.8510996,12.3145055 14.8948444,12.5281817 C12.5141209,12.4036774 10.3908184,11.2663141 8.97920923,9.52493691 C8.7302007,9.95228939 8.58887153,10.4402115 8.58887153,10.9735609 C8.58887153,11.969595 9.09530105,12.8478548 9.86756399,13.3643793 C9.39646677,13.3458719 8.95228939,13.2129552 8.57036414,12.9992789 L8.57036414,13.0346112 C8.57036414,14.4293955 9.55630333,15.5852662 10.8703281,15.8510996 C10.629732,15.9133518 10.372311,15.9486841 10.11489,15.9486841 C9.92813364,15.9486841 9.75147218,15.9301767 9.57312823,15.9049393 C9.93654609,17.0423026 10.9948324,17.8684052 12.2550174,17.8953251 C11.2690782,18.667588 10.0341305,19.1218604 8.69318592,19.1218604 C8.45258983,19.1218604 8.23050114,19.1134479 8,19.0865281 C9.2719625,19.9025358 10.7811561,20.373633 12.4064415,20.373633 C17.6827304,20.373633 20.5698834,16.0025237 20.5698834,12.2085086 C20.5698834,12.0840043 20.5698834,11.9595001 20.561471,11.8349958 C21.1200577,11.4261507 21.6096623,10.9197212 22,10.3510395 Z" id="路径" fill="#000000" fill-rule="nonzero"></path>
            </g>
        </g>
    </g>
</svg>